<?xml version="1.0" encoding="UTF-8"?>
<svg width="32px" height="33px" viewBox="0 0 32 33" version="1.1" xmlns="http://www.w3.org/2000/svg" xmlns:xlink="http://www.w3.org/1999/xlink">
    <title>fvcon16 copy</title>
    <defs>
        <linearGradient x1="103.578914%" y1="72.8735946%" x2="39.9165116%" y2="22.1701722%" id="linearGradient-1">
            <stop stop-color="#FFFFFF" offset="0%"></stop>
            <stop stop-color="#FFFFFF" offset="99.9043925%"></stop>
        </linearGradient>
    </defs>
    <g id="Page-1" stroke="none" stroke-width="1" fill="none" fill-rule="evenodd">
        <g id="fvcon16-copy" fill="url(#linearGradient-1)" fill-rule="nonzero">
            <path d="M16.0057806,26.0819375 L16.0055794,26.0504871 C16.0057806,26.0690348 16.0057806,26.0819375 16.0057806,26.0819375 Z M16.0055794,32.0263601 L16.0057806,32.0578105 C16.0057806,32.0578105 16.0057806,32.0449078 16.0055794,32.0263601 Z M13.6418927,24.0870603 C11.107836,22.3353905 4.66069401,17.7517714 2.30450473,16.329854 C0.0671293375,14.9796571 0.00393690852,12.4569397 0.00252365931,12.2456381 L0.0141324921,16.0426667 C0.0141324921,16.0426667 -0.325350158,18.3168 2.31611356,20.1427302 C4.85037224,21.8945016 11.2974132,26.4781206 13.6535016,27.8999365 C15.890877,29.2501333 15.9541703,31.7728508 15.9554826,31.9841524 L15.9439748,28.1871238 C15.9439748,28.1871238 16.2834574,25.9130921 13.6418927,24.0870603 Z M0.052793744,12.3034486 L0.052793744,12.2719982 C0.052793744,12.2719982 0.052592504,12.2849009 0.052793744,12.3034486 Z M0.052793744,6.32757562 L0.052793744,6.29612516 C0.052793744,6.29612516 0.052592504,6.30902791 0.052793744,6.32757562 Z M2.31611356,14.1667556 C4.85037224,15.918527 11.2974132,20.502146 13.6535016,21.9240635 C15.890877,23.2742603 15.9541703,25.7969778 15.9554826,26.0082794 L15.9439748,22.2113524 C15.9439748,22.2113524 16.2834574,19.937219 13.6419937,18.1112889 C11.107735,16.3595175 4.66079495,11.7758984 2.30460568,10.3540825 C0.0672302839,9.00378413 0.00393690852,6.48106667 0.00262460568,6.26976508 L0.0142334385,10.0666921 C0.0142334385,10.0666921 -0.325350158,12.3408254 2.31611356,14.1667556 Z M16.008204,26.0819375 L16.0084052,26.0504871 C16.008204,26.0690348 16.008204,26.0819375 16.008204,26.0819375 Z M16.008204,32.0578105 L16.0084052,32.0263601 C16.008204,32.0449078 16.008204,32.0578105 16.008204,32.0578105 Z M15.9697161,28.1871238 L15.9582082,31.9841524 C15.9595205,31.7728508 16.0228139,29.2501333 18.2601893,27.8999365 C20.6162776,26.478019 27.0633186,21.8945016 29.5975773,20.1427302 C32.239041,18.3168 31.8995584,16.0426667 31.8995584,16.0426667 L31.9111672,12.2456381 C31.9097539,12.4569397 31.8465615,14.9796571 29.6091861,16.329854 C27.2529968,17.7517714 20.8058549,22.3353905 18.2717981,24.0870603 C15.6301325,25.9130921 15.9697161,28.1871238 15.9697161,28.1871238 Z M31.9610899,12.2719982 L31.9610899,12.3034486 C31.9612911,12.2849009 31.9610899,12.2719982 31.9610899,12.2719982 Z M31.9610899,6.29612516 L31.9610899,6.32757562 C31.9612911,6.30902791 31.9610899,6.29612516 31.9610899,6.29612516 Z M31.8994574,10.0666921 L31.9110662,6.26976508 C31.909653,6.48106667 31.8464606,9.00378413 29.6090852,10.353981 C27.2528959,11.7758984 20.8059558,16.3594159 18.2716972,18.1111873 C15.6301325,19.9371175 15.9697161,22.2112508 15.9697161,22.2112508 L15.9582082,26.0081778 C15.9595205,25.7968762 16.0228139,23.2741587 18.2601893,21.9239619 C20.6162776,20.5020444 27.0633186,15.9184254 29.5975773,14.166654 C32.2389401,12.3408254 31.8994574,10.0666921 31.8994574,10.0666921 Z M16.0055794,13.8206966 L16.0057806,13.8521471 C16.0057806,13.8521471 16.0057806,13.8392443 16.0055794,13.8206966 Z M16.0055794,19.7965696 L16.0057806,19.8280201 C16.0057806,19.8280201 16.0057806,19.8151173 16.0055794,19.7965696 Z M13.6418927,11.8573714 C11.107836,10.1057016 4.66069401,5.52198095 2.30450473,4.10006349 C0.0672302839,2.74986667 0.00393690852,0.227149206 0.00262460568,0.015847619 L0.0142334385,3.81287619 C0.0142334385,3.81287619 -0.325249211,6.08700952 2.31621451,7.91293968 C4.85047319,9.66471111 11.2975142,14.2483302 13.6536025,15.670146 C15.8909779,17.0203429 15.9542713,19.5430603 15.9555836,19.7543619 L15.9440757,15.9573333 C15.9439748,15.9574349 16.2834574,13.6833016 13.6418927,11.8573714 Z M0.052793744,0.0736581646 L0.052793744,0.0422076993 C0.052793744,0.0422076993 0.052592504,0.0551104543 0.052793744,0.0736581646 Z M16.008204,13.8521471 L16.0084052,13.8206966 C16.008204,13.8392443 16.008204,13.8521471 16.008204,13.8521471 Z M16.008204,19.8280201 L16.0084052,19.7965696 C16.008204,19.8151173 16.008204,19.8280201 16.008204,19.8280201 Z M15.9697161,15.9574349 L15.9582082,19.7544635 C15.9595205,19.5431619 16.0228139,17.0204444 18.2601893,15.6702476 C20.6162776,14.2483302 27.0633186,9.6648127 29.5975773,7.91304127 C32.239041,6.08711111 31.8995584,3.81297778 31.8995584,3.81297778 L31.9111672,0.0159492063 C31.9097539,0.227250794 31.8465615,2.74996825 29.6091861,4.10016508 C27.2529968,5.52208254 20.8058549,10.1057016 18.2717981,11.8573714 C15.6301325,13.6833016 15.9697161,15.9574349 15.9697161,15.9574349 Z M31.9610899,0.0422076993 L31.9610899,0.0736581646 C31.9612911,0.0551104543 31.9610899,0.0422076993 31.9610899,0.0422076993 Z" id="Shape"></path>
        </g>
    </g>
</svg>